<?xml version="1.0" encoding="utf-8"?>
<!-- Generator: Adobe Illustrator 24.3.0, SVG Export Plug-In . SVG Version: 6.00 Build 0)  -->
<svg version="1.1" id="Capa_1" xmlns="http://www.w3.org/2000/svg" xmlns:xlink="http://www.w3.org/1999/xlink" x="0px" y="0px"
	 viewBox="0 0 38 16" style="enable-background:new 0 0 38 16;" xml:space="preserve">
<style type="text/css">
	.st0{fill:#5B4C9A;stroke:#5B4C9A;stroke-width:0.25;stroke-miterlimit:10;}
	.st1{fill:#1A1432;}
	.st2{fill:#B4A3D0;}
	.st3{fill:#FFFFFF;}
	.st4{fill:#5698D2;}
</style>
<g>
	<path class="st0" d="M4.2,11.2c-0.3-0.2-0.6-0.4-1-0.4c-0.8,0-1.3,0.6-1.3,1.4c0,0.6,0.4,1.3,1.3,1.3c0.3,0,0.6-0.1,0.9-0.3v-0.7
		h-1V12h1.5v1.5C4.3,13.8,3.9,14,3.3,14c-1.3,0-1.9-0.9-1.9-1.8c0-1,0.7-1.9,1.9-1.9c0.5,0,0.9,0.2,1.3,0.5L4.2,11.2z"/>
	<path class="st0" d="M5.9,10.7c0,0.4-0.6,0.4-0.6,0C5.2,10.3,5.9,10.3,5.9,10.7z M5.3,11.5V14h0.5v-2.5H5.3z"/>
	<path class="st0" d="M6.8,14v-2H6.3v-0.5h0.5v-0.2c0-0.6,0.4-0.9,0.9-0.9c0.2,0,0.4,0.1,0.6,0.2L8.1,11c-0.1-0.1-0.2-0.1-0.4-0.1
		c-0.2,0-0.4,0.2-0.4,0.5v0.2h0.8V12H7.3v2H6.8z"/>
	<path class="st0" d="M12.4,14H9.7c0-1.2,0-2.4,0-3.5h2.6V11h-2v1h2v0.5h-2v1h2V14z"/>
	<path class="st0" d="M14.5,11.5h0.6v0l-0.8,1.2l0.9,1.3v0h-0.6l-0.6-0.9L13.3,14h-0.6v0l0.9-1.3l-0.8-1.2v0h0.6l0.6,0.9L14.5,11.5z
		"/>
	<path class="st0" d="M15.6,15.1v-3.7h0.5l0,0.4c0.2-0.3,0.5-0.5,0.9-0.5c0.7,0,1.3,0.5,1.3,1.3S17.8,14,17,14
		c-0.3,0-0.7-0.1-0.9-0.4v1.5H15.6z M17.7,12.7c0-0.5-0.3-0.8-0.8-0.8c-0.5,0-0.8,0.3-0.8,0.8c0,0.4,0.3,0.8,0.8,0.8
		C17.4,13.5,17.7,13.2,17.7,12.7z"/>
	<path class="st0" d="M19.2,12.9c0,0.4,0.4,0.6,0.8,0.6c0.3,0,0.6-0.1,0.7-0.3l0.3,0.3C20.8,13.9,20.4,14,20,14
		c-0.8,0-1.3-0.5-1.3-1.3c0-0.8,0.5-1.3,1.3-1.3c0.8,0,1.4,0.5,1.3,1.5H19.2z M20.7,12.5c0-0.4-0.3-0.6-0.7-0.6
		c-0.4,0-0.7,0.2-0.8,0.6H20.7z"/>
	<path class="st0" d="M22.2,11.5l0,0.3c0.2-0.3,0.5-0.4,0.7-0.4c0.2,0,0.5,0.1,0.6,0.2l-0.2,0.5c-0.1-0.1-0.2-0.2-0.4-0.2
		c-0.4,0-0.7,0.2-0.7,0.7V14h-0.5v-2.5H22.2z"/>
	<path class="st0" d="M24.8,10.7v0.7h0.7v0.4h-0.7v1.2c0,0.3,0.1,0.4,0.4,0.4c0.1,0,0.2,0,0.3-0.1l0.2,0.4C25.4,14,25.3,14,25.1,14
		c-0.5,0-0.8-0.3-0.8-0.9v-1.2h-0.5v-0.4h0.5v-0.7L24.8,10.7z"/>
	<path class="st0" d="M29.7,13.2h-1.9L27.4,14h-0.6l1.6-3.5H29l1.6,3.5H30L29.7,13.2z M28.7,11L28,12.7h1.5L28.7,11z"/>
	<path class="st0" d="M31,15.1v-3.7h0.5l0,0.4c0.2-0.3,0.5-0.5,0.9-0.5c0.7,0,1.3,0.5,1.3,1.3S33.2,14,32.4,14
		c-0.3,0-0.7-0.1-0.9-0.4v1.5H31z M33.2,12.7c0-0.5-0.3-0.8-0.8-0.8c-0.5,0-0.8,0.3-0.8,0.8c0,0.4,0.3,0.8,0.8,0.8
		C32.8,13.5,33.2,13.2,33.2,12.7z"/>
	<path class="st0" d="M34.3,15.1v-3.7h0.5l0,0.4c0.2-0.3,0.5-0.5,0.9-0.5c0.7,0,1.3,0.5,1.3,1.3S36.4,14,35.7,14
		c-0.3,0-0.7-0.1-0.9-0.4v1.5H34.3z M36.4,12.7c0-0.5-0.3-0.8-0.8-0.8c-0.5,0-0.8,0.3-0.8,0.8c0,0.4,0.3,0.8,0.8,0.8
		C36.1,13.5,36.4,13.2,36.4,12.7z"/>
</g>
<g id="XMLID_123_">
	<g id="XMLID_238_">
		<path id="XMLID_235_" class="st1" d="M22.1,3.7L22.1,3.7l-0.5-0.9l-0.2,0.2c-0.5-0.4-1.2-0.6-2.1-0.6c-1.5-0.1-3.4-0.5-4.8,0.3
			c-1.4,0.7-2.3,2.6-3,3.8c-0.5,0.8-0.7,1.5-0.7,2.1l-0.2,0.1L11,9.5c0,0,0,0,0,0l0,0l0,0c0.4,0.8,1.4,1.4,2.8,1.4
			c2.8,0.1,6.4-1.7,7.9-4.1C22.4,5.6,22.5,4.5,22.1,3.7z M20.3,6.8c-0.6,0.9-2,0.9-3.1,1.4c-1.1,0.5-1.7,1.7-2.8,1.6
			c-2.1-0.1-2.9-1.6-1.8-3.4c1.1-1.8,3.7-3.1,5.8-3S21.5,5,20.3,6.8z"/>
		<path id="XMLID_398_" class="st1" d="M14.1,11c-0.1,0-0.2,0-0.3,0c-1.4-0.1-2.4-0.6-2.9-1.5l-0.6-1.1l0.3-0.1
			c0-0.7,0.3-1.4,0.7-2.1c0.1-0.2,0.3-0.4,0.4-0.7c0.7-1.1,1.5-2.5,2.7-3.1c1.2-0.6,2.7-0.5,4-0.4c0.3,0,0.6,0.1,0.9,0.1
			c0.8,0,1.6,0.2,2.1,0.6l0.2-0.2l0.5,1c0,0,0,0,0,0l0,0c0.4,0.9,0.3,2-0.5,3.2C20.3,9.2,16.9,11,14.1,11z M11.1,9.5
			c0.4,0.8,1.4,1.3,2.7,1.3c0.1,0,0.2,0,0.3,0c2.7,0,6.1-1.8,7.5-4c0.7-1.1,0.9-2.2,0.4-3.1l0-0.1l0,0l-0.4-0.7l-0.2,0.1l-0.1,0
			c-0.5-0.4-1.2-0.6-2.1-0.6c-0.3,0-0.6,0-0.9-0.1c-1.3-0.1-2.7-0.2-3.8,0.4c-1.1,0.6-1.9,2-2.6,3.1c-0.1,0.2-0.3,0.5-0.4,0.7
			c-0.5,0.7-0.7,1.4-0.7,2l0,0.1l-0.2,0.1L11.1,9.5z M14.6,9.9C14.5,9.9,14.5,9.9,14.6,9.9c-1.1,0-1.9-0.4-2.2-1.1
			c-0.3-0.7-0.2-1.5,0.3-2.4c1.1-1.8,3.8-3.2,5.9-3.1c1.1,0,1.8,0.4,2.2,1.1c0.3,0.7,0.2,1.5-0.3,2.4l0,0c-0.4,0.6-1.1,0.8-1.9,1
			c-0.4,0.1-0.9,0.2-1.2,0.4c-0.4,0.2-0.7,0.5-1.1,0.8C15.7,9.5,15.2,9.9,14.6,9.9z M18.4,3.5c-2,0-4.5,1.3-5.5,3
			c-0.5,0.8-0.6,1.6-0.3,2.2c0.3,0.6,1,1,2,1c0.6,0,1.1-0.4,1.6-0.8c0.3-0.3,0.7-0.6,1.1-0.8c0.4-0.2,0.9-0.3,1.3-0.5
			c0.7-0.2,1.4-0.4,1.7-0.9l0,0c0.5-0.8,0.6-1.6,0.3-2.2c-0.3-0.6-1-1-2-1C18.5,3.5,18.4,3.5,18.4,3.5z"/>
	</g>
	<g id="XMLID_233_">
		<path id="XMLID_380_" class="st2" d="M18.8,1.3c-2.8-0.1-6.4,1.7-7.9,4.1s-0.5,4.4,2.4,4.5c2.8,0.1,6.4-1.7,7.9-4.1
			C22.7,3.4,21.6,1.4,18.8,1.3z M19.8,5.8c-1.1,1.8-3.7,3.1-5.8,3c-2.1-0.1-2.9-1.6-1.8-3.4c1.1-1.8,3.7-3.1,5.8-3
			C20.2,2.5,20.9,4,19.8,5.8z"/>
		<path id="XMLID_390_" class="st1" d="M13.5,10c-0.1,0-0.2,0-0.3,0c-1.4-0.1-2.4-0.6-2.9-1.5c-0.5-0.9-0.3-2,0.5-3.2
			c1.5-2.4,5.1-4.3,8-4.1c1.4,0.1,2.4,0.6,2.9,1.5c0.5,0.9,0.3,2-0.5,3.2C19.7,8.2,16.3,10,13.5,10z M18.5,1.4c-2.7,0-6.1,1.8-7.5,4
			c-0.7,1.1-0.9,2.2-0.4,3c0.4,0.8,1.4,1.3,2.7,1.4c2.8,0.1,6.3-1.7,7.8-4c0.7-1.1,0.9-2.2,0.4-3c-0.4-0.8-1.4-1.3-2.7-1.4
			C18.7,1.4,18.6,1.4,18.5,1.4z M14.2,8.9c-0.1,0-0.1,0-0.2,0c-1.1,0-1.8-0.4-2.2-1.1c-0.3-0.7-0.2-1.5,0.3-2.4
			c1.1-1.8,3.8-3.2,5.9-3.1c1.1,0,1.8,0.4,2.2,1.1c0.3,0.7,0.2,1.5-0.3,2.4C18.8,7.6,16.3,8.9,14.2,8.9z M17.9,2.5
			c-2,0-4.5,1.3-5.5,3c-0.5,0.8-0.6,1.6-0.3,2.2c0.3,0.6,1,1,2,1c2.1,0.1,4.6-1.2,5.8-3c0.5-0.8,0.6-1.6,0.3-2.2c-0.3-0.6-1-1-2-1
			C18,2.5,17.9,2.5,17.9,2.5z"/>
	</g>
	<g id="XMLID_232_">
		
			<rect id="XMLID_386_" x="20" y="7.3" transform="matrix(0.8877 -0.4605 0.4605 0.8877 -1.3658 10.1248)" class="st2" width="0.2" height="1.1"/>
	</g>
	<g id="XMLID_231_">
		
			<rect id="XMLID_385_" x="12.6" y="9.8" transform="matrix(0.8877 -0.4605 0.4605 0.8877 -3.3392 7.0003)" class="st2" width="0.2" height="1.1"/>
	</g>
	<g id="XMLID_229_">
		
			<rect id="XMLID_384_" x="14.3" y="9.8" transform="matrix(0.8876 -0.4605 0.4605 0.8876 -3.1609 7.8065)" class="st2" width="0.2" height="1.1"/>
	</g>
	<g id="XMLID_176_">
		
			<rect id="XMLID_383_" x="17.4" y="2.4" transform="matrix(0.8877 -0.4605 0.4605 0.8877 0.6205 8.3898)" class="st2" width="0.2" height="1.1"/>
	</g>
	<g id="XMLID_169_">
		
			<rect id="XMLID_381_" x="13" y="4.5" transform="matrix(0.8876 -0.4606 0.4606 0.8876 -0.8731 6.6132)" class="st2" width="0.2" height="1.1"/>
	</g>
	<g id="XMLID_155_">
		<g id="XMLID_165_">
			<path id="XMLID_374_" class="st3" d="M30.9,6C30.9,6,30.9,5.9,30.9,6l-9.5-0.5c0,0,0,0-0.1,0l-0.4,0.7c0,0.1,0,0.2,0,0.3l0.4,0.7
				c0,0,0,0.1,0.1,0.1l9.5,0.4c0,0,0.1,0,0.1-0.1L30.9,6z"/>
			<path id="XMLID_375_" class="st1" d="M30.7,7.8C30.7,7.8,30.7,7.8,30.7,7.8l-9.5-0.4l0,0c0,0-0.1,0-0.1-0.1l-0.4-0.7
				c-0.1-0.1-0.1-0.3,0-0.4l0.4-0.7c0-0.1,0.1-0.1,0.1-0.1l0,0l0,0l9.5,0.4c0,0,0.1,0,0.1,0.1c0,0,0,0.1,0,0.1v0l-0.1,1.6
				C30.9,7.7,30.8,7.8,30.7,7.8z M21.3,7.2l9.4,0.4l0.1-1.5l-9.4-0.4l-0.4,0.7c0,0,0,0.1,0,0.2L21.3,7.2L21.3,7.2z"/>
		</g>
		<g id="XMLID_162_">
			<path id="XMLID_361_" class="st2" d="M31.3,7l-0.4,0.7c0,0.1-0.1,0.1-0.2,0l-0.4-0.7c0-0.1,0-0.2,0-0.3L30.8,6
				c0-0.1,0.1-0.1,0.2,0l0.4,0.7C31.4,6.8,31.4,6.9,31.3,7z"/>
			<path id="XMLID_369_" class="st1" d="M30.8,7.8C30.8,7.8,30.8,7.8,30.8,7.8c-0.1,0-0.1,0-0.2-0.1L30.3,7c-0.1-0.1-0.1-0.3,0-0.4
				l0.4-0.7c0-0.1,0.1-0.1,0.2-0.1c0.1,0,0.1,0,0.2,0.1l0.4,0.7c0.1,0.1,0.1,0.3,0,0.4L31,7.7C31,7.8,30.9,7.8,30.8,7.8z M30.9,6.1
				l-0.4,0.7c0,0,0,0.1,0,0.2l0.3,0.7l0.4-0.7c0,0,0-0.1,0-0.2L30.9,6.1z"/>
		</g>
		<g id="XMLID_157_">
			<polygon id="XMLID_725_" class="st1" points="21,6.8 21.2,7.3 30.8,7.6 30.5,7.2 			"/>
		</g>
	</g>
	<g id="XMLID_152_">
		
			<rect id="XMLID_368_" x="23.9" y="4" transform="matrix(4.104593e-02 -0.9992 0.9992 4.104593e-02 16.586 30.1671)" class="st1" width="0.2" height="4.9"/>
	</g>
	<g id="XMLID_151_">
		
			<rect id="XMLID_366_" x="28.1" y="5.8" transform="matrix(4.105001e-02 -0.9992 0.9992 4.105001e-02 20.4452 34.5758)" class="st1" width="0.2" height="1.6"/>
	</g>
	<g id="XMLID_147_">
		<path id="XMLID_365_" class="st4" d="M16.1,7.9L16,7.7c2.8-0.9,3.3-2.9,3.3-3l0.2,0.1C19.5,4.8,19,6.9,16.1,7.9z"/>
	</g>
	<g id="XMLID_144_">
		<path id="XMLID_364_" class="st3" d="M18.4,6l-0.2-0.1c0.8-0.9,0.6-1.7,0.6-1.7l0.2,0C19,4.1,19.2,5,18.4,6z"/>
	</g>
	<g id="XMLID_143_">
		<path id="XMLID_362_" class="st4" d="M12.8,8l-0.2,0c0-0.4,0.1-0.9,0.4-1.3l0.2,0.1C12.9,7.2,12.8,7.6,12.8,8z"/>
	</g>
</g>
</svg>
